<svg xmlns="http://www.w3.org/2000/svg" xmlns:xlink="http://www.w3.org/1999/xlink" width="500" zoomAndPan="magnify" viewBox="0 0 375 374.999991" height="500" preserveAspectRatio="xMidYMid meet" version="1.0"><defs><g/><clipPath id="id1"><path d="M 23 127.125 L 111 127.125 L 111 212 L 23 212 Z M 23 127.125 " clip-rule="nonzero"/></clipPath><clipPath id="id2"><path d="M 6 167 L 87 167 L 87 228.375 L 6 228.375 Z M 6 167 " clip-rule="nonzero"/></clipPath></defs><g clip-path="url(#id1)"><path fill="#ff0404" d="M 66.519531 153.304688 C 69.460938 153.304688 72.410156 153.699219 75.1875 154.675781 C 83.457031 157.589844 87.339844 163.632812 86.839844 172.808594 C 86.835938 172.886719 86.835938 172.96875 86.832031 173.046875 C 86.5625 182.738281 79.046875 190.507812 69.648438 191.761719 L 89.882812 211.980469 C 102.589844 203.769531 111.003906 189.492188 111.003906 173.246094 C 111.003906 147.78125 90.34375 127.136719 64.859375 127.136719 C 46.527344 127.136719 30.691406 137.824219 23.25 153.304688 L 66.519531 153.304688 " fill-opacity="1" fill-rule="nonzero"/></g><g clip-path="url(#id2)"><path fill="#066606" d="M 66.050781 177.644531 C 69.277344 177.585938 71.128906 176.039062 71.609375 172.992188 C 72.085938 169.945312 70.617188 168.164062 67.199219 167.644531 L 5.996094 167.644531 L 18.796875 170.597656 C 18.746094 171.472656 18.71875 172.355469 18.71875 173.246094 C 18.71875 198.710938 39.375 219.355469 64.859375 219.355469 C 66.324219 219.355469 67.765625 219.285156 69.195312 219.152344 L 86.230469 228.367188 L 35.433594 177.601562 L 66.050781 177.644531 " fill-opacity="1" fill-rule="nonzero"/></g><path fill="#066606" d="M 109.34375 189.039062 L 240.488281 189.039062 L 240.488281 192.101562 L 109.34375 192.101562 Z M 109.34375 189.039062 " fill-opacity="1" fill-rule="nonzero"/><g fill="#066606" fill-opacity="1"><g transform="translate(109.342241, 186.99666)"><g><path d="M 26.46875 -14.109375 C 26.46875 -9.554688 25.164062 -6.066406 22.5625 -3.640625 C 19.96875 -1.210938 16.222656 0 11.328125 0 L 3.484375 0 L 3.484375 -27.703125 L 12.1875 -27.703125 C 16.707031 -27.703125 20.21875 -26.503906 22.71875 -24.109375 C 25.21875 -21.722656 26.46875 -18.390625 26.46875 -14.109375 Z M 20.359375 -13.96875 C 20.359375 -19.914062 17.734375 -22.890625 12.484375 -22.890625 L 9.359375 -22.890625 L 9.359375 -4.84375 L 11.875 -4.84375 C 17.53125 -4.84375 20.359375 -7.882812 20.359375 -13.96875 Z M 20.359375 -13.96875 "/></g></g></g><g fill="#066606" fill-opacity="1"><g transform="translate(133.989639, 186.99666)"><g><path d="M 3.484375 0 L 3.484375 -27.703125 L 9.359375 -27.703125 L 9.359375 0 Z M 3.484375 0 "/></g></g></g><g fill="#066606" fill-opacity="1"><g transform="translate(142.760531, 186.99666)"><g><path d="M 14 -15.546875 L 24.984375 -15.546875 L 24.984375 -1.1875 C 23.203125 -0.613281 21.523438 -0.210938 19.953125 0.015625 C 18.378906 0.253906 16.773438 0.375 15.140625 0.375 C 10.953125 0.375 7.753906 -0.847656 5.546875 -3.296875 C 3.347656 -5.753906 2.25 -9.285156 2.25 -13.890625 C 2.25 -18.359375 3.523438 -21.84375 6.078125 -24.34375 C 8.640625 -26.84375 12.191406 -28.09375 16.734375 -28.09375 C 19.566406 -28.09375 22.304688 -27.523438 24.953125 -26.390625 L 23 -21.6875 C 20.976562 -22.695312 18.875 -23.203125 16.6875 -23.203125 C 14.144531 -23.203125 12.109375 -22.347656 10.578125 -20.640625 C 9.054688 -18.941406 8.296875 -16.648438 8.296875 -13.765625 C 8.296875 -10.765625 8.910156 -8.472656 10.140625 -6.890625 C 11.367188 -5.304688 13.160156 -4.515625 15.515625 -4.515625 C 16.742188 -4.515625 17.988281 -4.640625 19.25 -4.890625 L 19.25 -10.671875 L 14 -10.671875 Z M 14 -15.546875 "/></g></g></g><g fill="#066606" fill-opacity="1"><g transform="translate(166.782722, 186.99666)"><g><path d="M 3.484375 0 L 3.484375 -27.703125 L 9.359375 -27.703125 L 9.359375 0 Z M 3.484375 0 "/></g></g></g><g fill="#066606" fill-opacity="1"><g transform="translate(175.553612, 186.99666)"><g><path d="M 14.171875 0 L 8.296875 0 L 8.296875 -22.8125 L 0.78125 -22.8125 L 0.78125 -27.703125 L 21.6875 -27.703125 L 21.6875 -22.8125 L 14.171875 -22.8125 Z M 14.171875 0 "/></g></g></g><g fill="#066606" fill-opacity="1"><g transform="translate(193.948923, 186.99666)"><g><path d="M 20.4375 0 L 18.4375 -6.59375 L 8.328125 -6.59375 L 6.328125 0 L 0 0 L 9.78125 -27.8125 L 16.953125 -27.8125 L 26.765625 0 Z M 17.03125 -11.515625 C 15.175781 -17.492188 14.128906 -20.875 13.890625 -21.65625 C 13.660156 -22.4375 13.492188 -23.054688 13.390625 -23.515625 C 12.972656 -21.890625 11.78125 -17.890625 9.8125 -11.515625 Z M 17.03125 -11.515625 "/></g></g></g><g fill="#066606" fill-opacity="1"><g transform="translate(216.64491, 186.99666)"><g><path d="M 3.484375 0 L 3.484375 -27.703125 L 9.359375 -27.703125 L 9.359375 -4.84375 L 20.59375 -4.84375 L 20.59375 0 Z M 3.484375 0 "/></g></g></g><g fill="#066606" fill-opacity="1"><g transform="translate(234.490796, 186.99666)"><g/></g></g><path fill="#ff0404" d="M 240.488281 189.039062 L 366.734375 189.039062 L 366.734375 192.101562 L 240.488281 192.101562 Z M 240.488281 189.039062 " fill-opacity="1" fill-rule="nonzero"/><g fill="#ff0404" fill-opacity="1"><g transform="translate(240.486443, 186.99666)"><g><path d="M 9.359375 -15.40625 L 11.25 -15.40625 C 13.101562 -15.40625 14.472656 -15.710938 15.359375 -16.328125 C 16.242188 -16.941406 16.6875 -17.914062 16.6875 -19.25 C 16.6875 -20.5625 16.234375 -21.492188 15.328125 -22.046875 C 14.429688 -22.609375 13.035156 -22.890625 11.140625 -22.890625 L 9.359375 -22.890625 Z M 9.359375 -10.625 L 9.359375 0 L 3.484375 0 L 3.484375 -27.703125 L 11.5625 -27.703125 C 15.320312 -27.703125 18.101562 -27.015625 19.90625 -25.640625 C 21.71875 -24.265625 22.625 -22.1875 22.625 -19.40625 C 22.625 -17.769531 22.171875 -16.316406 21.265625 -15.046875 C 20.367188 -13.773438 19.101562 -12.78125 17.46875 -12.0625 C 21.632812 -5.84375 24.347656 -1.820312 25.609375 0 L 19.09375 0 L 12.484375 -10.625 Z M 9.359375 -10.625 "/></g></g></g><g fill="#ff0404" fill-opacity="1"><g transform="translate(262.026744, 186.99666)"><g><path d="M 26.03125 -27.703125 L 26.03125 -9.78125 C 26.03125 -7.726562 25.570312 -5.929688 24.65625 -4.390625 C 23.738281 -2.847656 22.414062 -1.664062 20.6875 -0.84375 C 18.957031 -0.03125 16.910156 0.375 14.546875 0.375 C 10.984375 0.375 8.21875 -0.535156 6.25 -2.359375 C 4.28125 -4.179688 3.296875 -6.675781 3.296875 -9.84375 L 3.296875 -27.703125 L 9.15625 -27.703125 L 9.15625 -10.734375 C 9.15625 -8.609375 9.582031 -7.046875 10.4375 -6.046875 C 11.289062 -5.046875 12.710938 -4.546875 14.703125 -4.546875 C 16.617188 -4.546875 18.007812 -5.046875 18.875 -6.046875 C 19.738281 -7.054688 20.171875 -8.632812 20.171875 -10.78125 L 20.171875 -27.703125 Z M 26.03125 -27.703125 "/></g></g></g><g fill="#ff0404" fill-opacity="1"><g transform="translate(287.280404, 186.99666)"><g><path d="M 25.765625 0 L 19.09375 0 L 11.84375 -11.671875 L 9.359375 -9.890625 L 9.359375 0 L 3.484375 0 L 3.484375 -27.703125 L 9.359375 -27.703125 L 9.359375 -15.015625 L 11.671875 -18.28125 L 19.171875 -27.703125 L 25.6875 -27.703125 L 16.03125 -15.4375 Z M 25.765625 0 "/></g></g></g><g fill="#ff0404" fill-opacity="1"><g transform="translate(308.972272, 186.99666)"><g><path d="M 26.03125 -27.703125 L 26.03125 -9.78125 C 26.03125 -7.726562 25.570312 -5.929688 24.65625 -4.390625 C 23.738281 -2.847656 22.414062 -1.664062 20.6875 -0.84375 C 18.957031 -0.03125 16.910156 0.375 14.546875 0.375 C 10.984375 0.375 8.21875 -0.535156 6.25 -2.359375 C 4.28125 -4.179688 3.296875 -6.675781 3.296875 -9.84375 L 3.296875 -27.703125 L 9.15625 -27.703125 L 9.15625 -10.734375 C 9.15625 -8.609375 9.582031 -7.046875 10.4375 -6.046875 C 11.289062 -5.046875 12.710938 -4.546875 14.703125 -4.546875 C 16.617188 -4.546875 18.007812 -5.046875 18.875 -6.046875 C 19.738281 -7.054688 20.171875 -8.632812 20.171875 -10.78125 L 20.171875 -27.703125 Z M 26.03125 -27.703125 "/></g></g></g><g fill="#ff0404" fill-opacity="1"><g transform="translate(334.225931, 186.99666)"><g><path d="M 15.21875 0 L 8.546875 -21.734375 L 8.375 -21.734375 C 8.613281 -17.304688 8.734375 -14.351562 8.734375 -12.875 L 8.734375 0 L 3.484375 0 L 3.484375 -27.703125 L 11.484375 -27.703125 L 18.03125 -6.515625 L 18.140625 -6.515625 L 25.09375 -27.703125 L 33.09375 -27.703125 L 33.09375 0 L 27.625 0 L 27.625 -13.109375 C 27.625 -13.722656 27.628906 -14.4375 27.640625 -15.25 C 27.660156 -16.0625 27.75 -18.207031 27.90625 -21.6875 L 27.734375 -21.6875 L 20.59375 0 Z M 15.21875 0 "/></g></g></g></svg>